<svg aria-hidden="true" style="position:absolute;width:0;height:0;overflow:hidden" xmlns="http://www.w3.org/2000/svg">
  <defs>
    <symbol id="logo" viewBox="0 0 259 32">
      <path d="M16.114 31.913c-2.296 0-4.422-.392-6.378-1.175a16.381 16.381 0 0 1-5.145-3.353 15.912 15.912 0 0 1-3.401-5.094C.396 20.346 0 18.242 0 15.978c0-2.293.397-4.397 1.19-6.313.822-1.945 1.956-3.628 3.401-5.05a16.518 16.518 0 0 1 5.102-3.352C11.649.45 13.761.044 16.028.044c2.381 0 4.521.392 6.42 1.175a15.663 15.663 0 0 1 5.017 3.178l-5.102 5.224c-.709-.813-1.587-1.451-2.636-1.916s-2.282-.697-3.699-.697c-1.219 0-2.338.203-3.359.61a7.092 7.092 0 0 0-2.594 1.829c-.737.784-1.318 1.727-1.743 2.83-.397 1.103-.595 2.337-.595 3.701s.198 2.598.595 3.701c.425 1.103 1.006 2.061 1.743 2.873a7.855 7.855 0 0 0 2.594 1.829c1.02.406 2.14.61 3.359.61 1.417 0 2.665-.218 3.742-.653a7.94 7.94 0 0 0 2.764-1.959l5.102 5.225a16.291 16.291 0 0 1-5.017 3.178c-1.842.755-4.011 1.132-6.505 1.132zM27.969 31.434 39.661.566h7.356l11.565 30.868h-7.951L41.915 5.486h2.764L35.75 31.434h-7.781zM61.404 31.434V.566h7.611v30.868h-7.611zm6.037 0v-6.705h14.541v6.705H67.441zM85.528 31.434V.566h7.611v30.868h-7.611zM98.482 31.434V.566h7.611v30.868h-7.611zm6.038-11.537v-6.574h14.924v6.574H104.52zm0-12.757V.566h15.604V7.14H104.52zM138.438 32c-2.324 0-4.464-.406-6.42-1.219s-3.671-1.945-5.145-3.396a15.931 15.931 0 0 1-3.402-5.094c-.822-1.974-1.233-4.093-1.233-6.357s.397-4.354 1.19-6.269c.822-1.945 1.956-3.643 3.402-5.094s3.146-2.569 5.102-3.352C133.888.406 136.028 0 138.352 0s4.464.406 6.421 1.219c1.955.784 3.657 1.901 5.102 3.352s2.565 3.149 3.359 5.094c.821 1.945 1.233 4.049 1.233 6.313s-.411 4.368-1.233 6.313a15.843 15.843 0 0 1-3.359 5.137c-1.446 1.451-3.147 2.583-5.102 3.396-1.928.784-4.039 1.176-6.336 1.176zm-.085-6.966c1.701 0 3.175-.377 4.422-1.132s2.21-1.814 2.892-3.178c.68-1.364 1.02-2.961 1.02-4.789 0-1.335-.199-2.554-.595-3.657-.369-1.103-.922-2.046-1.659-2.83-.737-.813-1.616-1.437-2.636-1.872s-2.169-.653-3.444-.653c-1.701 0-3.175.377-4.422 1.132-1.247.726-2.211 1.771-2.891 3.135s-1.02 2.946-1.02 4.745c0 1.393.184 2.656.553 3.788a8.51 8.51 0 0 0 1.701 2.873 7.739 7.739 0 0 0 2.636 1.828c1.02.406 2.169.61 3.444.61zM164.311 18.939v-5.573h5.74c1.246 0 2.197-.305 2.848-.914.681-.639 1.021-1.495 1.021-2.569 0-1.045-.34-1.887-1.021-2.525-.651-.668-1.602-1.001-2.848-1.001h-5.74V.567h6.804c2.04 0 3.825.392 5.356 1.175 1.559.784 2.778 1.858 3.657 3.222s1.318 2.961 1.318 4.789c0 1.829-.454 3.439-1.361 4.833-.879 1.364-2.112 2.438-3.7 3.222-1.588.755-3.444 1.132-5.568 1.132h-6.507zm-6.037 12.495V.566h7.611v30.868h-7.611zm16.327 0-8.759-13.235 6.845-1.698 10.714 14.933h-8.8zM185.886 31.434V.566h5.314l2.296 6.313v24.555h-7.61zm20.791 0L189.074 8.533 191.2.566l17.646 22.901-2.168 7.967zm0 0-1.957-6.487V.566h7.611v30.868h-5.655zM217.69 31.434V.566h7.611v30.868h-7.611zM228.434 31.434 240.126.566h7.355l11.566 30.868h-7.95l-8.718-25.948h2.764l-8.928 25.948h-7.782z"/>
    </symbol>
	  <symbol id="search" viewBox="0 0 32 32">
		  <path d="M31.008 27.231l-7.58-6.447c-0.784-0.705-1.622-1.029-2.299-0.998 1.789-2.096 2.87-4.815 2.87-7.787 0-6.627-5.373-12-12-12s-12 5.373-12 12 5.373 12 12 12c2.972 0 5.691-1.081 7.787-2.87-0.031 0.677 0.293 1.515 0.998 2.299l6.447 7.58c1.104 1.226 2.907 1.33 4.007 0.23s0.997-2.903-0.23-4.007zM12 20c-4.418 0-8-3.582-8-8s3.582-8 8-8 8 3.582 8 8-3.582 8-8 8z"></path>
	  </symbol>
    <symbol id="instagram" viewBox="0 0 32 32">
      <path d="M31.969 9.408c-.075-1.7-.35-2.869-.744-3.882a7.806 7.806 0 0 0-1.851-2.838A7.867 7.867 0 0 0 26.542.844C25.523.45 24.36.175 22.66.1 20.947.019 20.403 0 16.059 0s-4.888.019-6.595.094c-1.7.075-2.869.35-3.882.744a7.803 7.803 0 0 0-2.838 1.85A7.867 7.867 0 0 0 .9 5.52C.506 6.539.231 7.702.156 9.402c-.081 1.713-.1 2.257-.1 6.601s.019 4.888.094 6.595c.075 1.7.35 2.869.744 3.882a7.895 7.895 0 0 0 1.85 2.838 7.867 7.867 0 0 0 2.832 1.844c1.019.394 2.182.669 3.882.744 1.706.075 2.25.094 6.595.094s4.888-.019 6.595-.094c1.7-.075 2.869-.35 3.882-.744a8.184 8.184 0 0 0 4.682-4.682c.394-1.019.669-2.182.744-3.882.075-1.707.094-2.251.094-6.595s-.006-4.888-.081-6.595zm-2.882 13.065c-.069 1.563-.331 2.407-.55 2.969a5.31 5.31 0 0 1-3.038 3.038c-.563.219-1.413.481-2.969.55-1.688.075-2.194.094-6.464.094s-4.782-.019-6.464-.094c-1.563-.069-2.407-.331-2.969-.55a4.926 4.926 0 0 1-1.838-1.194 4.974 4.974 0 0 1-1.194-1.838c-.219-.563-.481-1.413-.55-2.969-.075-1.688-.094-2.194-.094-6.464s.019-4.782.094-6.464c.069-1.563.331-2.407.55-2.969a4.868 4.868 0 0 1 1.2-1.838A4.974 4.974 0 0 1 6.639 3.55c.563-.219 1.413-.481 2.969-.55 1.688-.075 2.194-.094 6.464-.094 4.276 0 4.782.019 6.464.094 1.563.069 2.407.331 2.969.55a4.914 4.914 0 0 1 1.838 1.194 4.974 4.974 0 0 1 1.194 1.838c.219.563.481 1.413.55 2.969.075 1.688.094 2.194.094 6.464s-.019 4.77-.094 6.458z"/>
      <path d="M16.059 7.783c-4.538 0-8.22 3.682-8.22 8.22s3.682 8.22 8.22 8.22c4.539 0 8.22-3.682 8.22-8.22s-3.682-8.22-8.22-8.22zm0 13.552a5.333 5.333 0 0 1 0-10.664 5.333 5.333 0 0 1 0 10.664zM26.524 7.458a1.919 1.919 0 1 1-3.838 0 1.919 1.919 0 0 1 3.838 0z"/>
    </symbol>
    <symbol id="happy" viewBox="0 0 32 32">
      <path d="M16 32c8.837 0 16-7.163 16-16s-7.163-16-16-16-16 7.163-16 16 7.163 16 16 16zM16 3c7.18 0 13 5.82 13 13s-5.82 13-13 13-13-5.82-13-13 5.82-13 13-13zM16 18.711c3.623 0 7.070-0.963 10-2.654-0.455 5.576-4.785 9.942-10 9.942s-9.544-4.371-10-9.947c2.93 1.691 6.377 2.658 10 2.658zM8 11c0-1.657 0.895-3 2-3s2 1.343 2 3c0 1.657-0.895 3-2 3s-2-1.343-2-3zM20 11c0-1.657 0.895-3 2-3s2 1.343 2 3c0 1.657-0.895 3-2 3s-2-1.343-2-3z"></path>
    </symbol>
  </defs>
</svg>